<svg xmlns="http://www.w3.org/2000/svg" width="24" height="24" viewBox="0 0 24 24" fill="none" stroke="#7c3aed" stroke-width="2" stroke-linecap="round" stroke-linejoin="round">
  <path d="M12 2c1.7 0 3.4.3 5 .8 1.5.5 2.9 1.4 4 2.5 1.7 1.6 2.8 3.7 3 6 .2 2.3-.5 4.6-2 6.4-1.2 1.6-2.8 2.8-4.7 3.5-1.5.6-3 .8-4.6.8-1.5 0-3-.3-4.5-.8-1.8-.7-3.3-1.8-4.5-3.3a10 10 0 0 1-2.4-9.4c.5-2 1.8-3.9 3.5-5.3 1.2-1 2.6-1.7 4-2.2A14 14 0 0 1 12 2Z"></path>
  <path d="M12 12v0"></path>
  <path d="M12 8v0"></path>
  <path d="M12 16v0"></path>
</svg>